<?xml version='1.0' encoding='utf-8'?>
<svg xmlns="http://www.w3.org/2000/svg" width="1e3" height="1e3" version="1.1" viewBox="0 0 264.58 264.58"> <rect x="-6.7529e-6" y="-6.7529e-6" width="264.58" height="264.58" fill="#f7f7f7" style="paint-order:stroke markers fill"/> <g transform="translate(-25.444 -315.81)" fill="none" stroke-miterlimit="4"> <path d="m193.67 430.24h10.217" stroke="#4d4d4d" stroke-linecap="round" stroke-linejoin="miter" stroke-width="6.6146"/> <path d="m124.09 415.46v-24.667h67.286v24.667" stroke="#0573e1" stroke-linecap="butt" stroke-width="6.6146" style="paint-order:fill markers stroke"/> <path d="m124.09 480.24h-27.288c-0.69031 0-1.246-0.55557-1.246-1.2457v-62.283c0-0.69009 0.55573-1.2456 1.246-1.2456h121.86c0.6903 0 1.246 0.55556 1.246 1.2456v62.283c0 0.6901-0.55573 1.2457-1.246 1.2457h-27.288" stroke="#4d4d4d" stroke-linecap="butt" stroke-width="7.9375" style="paint-order:fill markers stroke"/> <path d="m191.38 462.18v43.222h-67.286v-43.222" stroke="#0573e1" stroke-linecap="butt" stroke-width="6.6146" style="paint-order:fill markers stroke"/> <path d="m113.37 462.18h88.737" stroke="#4d4d4d" stroke-linecap="round" stroke-linejoin="miter" stroke-width="6.6146"/> <path d="m139.15 477.63h37.162" stroke="#0573e1" stroke-linecap="round" stroke-linejoin="miter" stroke-width="6.6146"/> <path d="m139.15 490.17h37.162" stroke="#0573e1" stroke-linecap="round" stroke-linejoin="miter" stroke-width="6.6146"/> </g> </svg>